<svg width="512" height="512" viewBox="0 0 512 512" fill="none" xmlns="http://www.w3.org/2000/svg" role="img" aria-labelledby="title desc">
  <title id="title">59 Tech</title>
  <desc id="desc">Logo placeholder de 59 Tech en rojo, negro y gris.</desc>
  <rect width="512" height="512" rx="96" fill="#121111"/>
  <path d="M92 356V153h169v57H154v45h92c52 0 87 31 87 76 0 48-38 82-94 82H109v-57h124c24 0 38-10 38-28s-14-28-38-28H92Z" fill="#dfdcdc"/>
  <path d="M284 154h136v202c0 42-31 66-78 66-30 0-58-9-79-25l25-48c17 12 34 18 51 18 17 0 27-8 27-23v-24c-13 11-30 17-51 17-44 0-75-33-75-87 0-57 34-96 85-96Zm54 130c19 0 31-14 31-37s-12-38-31-38-31 15-31 38 12 37 31 37Z" fill="#eb0f0f"/>
  <path d="M92 112h328" stroke="#eb0f0f" stroke-width="18" stroke-linecap="round"/>
  <path d="M150 436h212" stroke="#dfdcdc" stroke-opacity=".55" stroke-width="14" stroke-linecap="round"/>
</svg>
